<svg fill="none" height="512" viewBox="0 0 512 512" width="512" xmlns="http://www.w3.org/2000/svg">
      <path
        d="M179.351 35.9561C120.607 5.71854 48.9667 25.4118 15.9299 82.6326C-17.1064 139.849 1.76725 205.012 53.548 246.052C79.7507 266.823 112.025 286.542 152.089 309.871C184.656 227.303 255.742 113.145 255.742 113.145C255.742 113.145 228.367 61.1877 179.351 35.9561Z"
        fill="#A7CA15"
      />
      <path
        d="M495.558 82.6326C462.521 25.4118 390.884 5.71854 332.136 35.9561C283.124 61.1877 255.741 113.145 255.741 113.145C255.741 113.145 326.831 227.303 359.4 309.871C399.466 286.542 431.739 266.823 457.94 246.052C509.722 205.012 528.595 139.849 495.558 82.6326Z"
        fill="#F68512"
      />
      <path
        d="M289.833 370.201C289.833 389.027 274.571 404.288 255.746 404.288C236.916 404.288 221.655 389.027 221.655 370.201C221.655 363.881 223.491 358.038 226.488 352.963C199.065 336.94 174.37 322.846 152.089 309.871C142.42 334.386 136.111 356.149 136.111 371.274C136.111 437.343 189.672 490.902 255.741 490.902C321.817 490.902 375.381 437.343 375.381 371.274C375.381 356.149 369.07 334.386 359.4 309.871C337.117 322.846 312.422 336.94 284.997 352.963C287.996 358.038 289.833 363.881 289.833 370.201"
        fill="#EC008C"
      />
      <path
        d="M152.089 309.871C174.37 322.846 199.065 336.94 226.488 352.963C232.418 342.921 243.237 336.112 255.746 336.112C268.252 336.112 279.069 342.921 284.998 352.963C312.423 336.94 337.117 322.846 359.4 309.871C326.832 227.303 255.741 113.145 255.741 113.145C255.741 113.145 184.656 227.303 152.089 309.871"
        fill="#62191D"
      />
    </svg>
