<svg width="620" height="639" viewBox="0 0 620 639" fill="none" xmlns="http://www.w3.org/2000/svg">
<path d="M115 111.103H127V329.103L121 331.603L115 329.103V111.103Z" fill="#D9D9D9"/>
<path d="M363 428.103H375V506.207L369 507.103L363 506.207V428.103Z" fill="#D9D9D9"/>
<path d="M121 507.103V495.103H210.968L212 501.103L210.968 507.103H121Z" fill="#D9D9D9"/>
<path d="M364 506.103V494.103H501.424L503 500.103L501.424 506.103H364Z" fill="#D9D9D9"/>
<path d="M366 440.103V428.103H447.07L448 434.103L447.07 440.103H366Z" fill="#D9D9D9"/>
<path d="M506 506.103H494V285.631L500 283.103L506 285.631V506.103Z" fill="#D9D9D9"/>
<path d="M406 267.103L412 258.603L418 267.103V411.447L412 413.103L406 411.447V267.103Z" fill="#D9D9D9"/>
<path d="M406 267.103L412 258.603L418 267.103V411.447L412 413.103L406 411.447V267.103Z" fill="#D9D9D9"/>
<path d="M205 330.391L154.5 330.391L152.5 317.603L213 317.603L215.5 322.103L217 330.391V505.099L211 507.103L205 505.099V330.391Z" fill="#D9D9D9"/>
<path d="M205 330.391L154.5 330.391L152.5 317.603L213 317.603L215.5 322.103L217 330.391V505.099L211 507.103L205 505.099V330.391Z" fill="#D9D9D9"/>
<path d="M405.18 267.383L415.785 263.2L414.799 274.557L316.385 406.5L310.447 404.426L306.766 399.326L405.18 267.383Z" fill="#D9D9D9"/>
<path d="M405.18 267.383L415.785 263.2L414.799 274.557L316.385 406.5L310.447 404.426L306.766 399.326L405.18 267.383Z" fill="#D9D9D9"/>
<path d="M441.955 121.626L455.436 113.587L451.574 128.801L304.308 326.239L297.809 324.916L294.689 319.064L441.955 121.626Z" fill="#D9D9D9"/>
<path d="M441.955 121.626L455.436 113.587L451.574 128.801L304.308 326.239L297.809 324.916L294.689 319.064L441.955 121.626Z" fill="#D9D9D9"/>
<path d="M405.473 118.047L416.248 113.636L415.092 125.222L313.781 261.048L307.809 259.019L304.162 253.874L405.473 118.047Z" fill="#D9D9D9"/>
<path d="M405.473 118.047L416.248 113.636L415.092 125.222L313.781 261.048L307.809 259.019L304.162 253.874L405.473 118.047Z" fill="#D9D9D9"/>
<path d="M409.5 125.103L403.5 121.103L409.5 113.103H502L504.5 115.103L505 119.603V124.603L409.5 125.103Z" fill="#D9D9D9"/>
<path d="M493 121.103L497 115.103L505 121.103V213.603L503 216.103L498.5 216.603H493.5L493 121.103Z" fill="#D9D9D9"/>
<path d="M209.963 275.783L208.817 264.441L219.48 268.473L319.752 399.01L316.143 404.162L310.235 406.32L209.963 275.783Z" fill="#D9D9D9"/>
<path d="M209.963 275.783L208.817 264.441L219.48 268.473L319.752 399.01L316.143 404.162L310.235 406.32L209.963 275.783Z" fill="#D9D9D9"/>
<path d="M204.905 127.1L203.758 115.758L214.421 119.79L314.693 250.327L311.084 255.479L305.176 257.637L204.905 127.1Z" fill="#D9D9D9"/>
<path d="M204.905 127.1L203.758 115.758L214.421 119.79L314.693 250.327L311.084 255.479L305.176 257.637L204.905 127.1Z" fill="#D9D9D9"/>
<path d="M220.652 223.469L220.758 213.758L230.169 216.159L309.168 319.004L305.316 323.838L299.652 326.314L220.652 223.469Z" fill="#D9D9D9"/>
<path d="M220.652 223.469L220.758 213.758L230.169 216.159L309.168 319.004L305.316 323.838L299.652 326.314L220.652 223.469Z" fill="#D9D9D9"/>
<path d="M118 123.103V111.103H178.308L179 117.103L178.308 123.103H118Z" fill="#D9D9D9"/>
<path d="M127 507.103H115V348.917L121 347.103L127 348.917V507.103Z" fill="#D9D9D9"/>
<circle cx="150" cy="321.103" r="12" fill="#D9D9D9"/>
<circle cx="499" cy="217" r="12" fill="#D9D9D9"/>
<circle cx="449" cy="434" r="12" fill="#D9D9D9"/>
<circle cx="174" cy="117" r="12" fill="#D9D9D9"/>
<circle cx="121" cy="348" r="12" fill="#D9D9D9"/>
<circle cx="499" cy="288" r="12" fill="#D9D9D9"/>
<circle cx="412" cy="401" r="12" fill="#D9D9D9"/>
</svg>
