<svg width="541" height="821" viewBox="0 0 541 821" fill="none" xmlns="http://www.w3.org/2000/svg">
<g id="Pencil Icon">
<rect id="Rectangle 41" x="277" y="235" width="37" height="347" fill="black" fill-opacity="0.08"/>
<rect id="Rectangle 43" x="240" y="235" width="37" height="347" fill="black" fill-opacity="0.03"/>
<rect id="Rectangle 44" x="240" y="98" width="37" height="128" fill="black" fill-opacity="0.03"/>
<rect id="Rectangle 42" x="277" y="98" width="37" height="128" fill="black" fill-opacity="0.08"/>
<path id="Vector 3" d="M258 706.5L276.5 663H257.75H239L258 706.5Z" stroke="black" stroke-opacity="0.15" stroke-width="20"/>
<path id="Outline 4" d="M195 180C212.641 180 283.017 180 316 180" stroke="black" stroke-width="20"/>
<path id="Outline 3" d="M201 225.5H313.5" stroke="#050505" stroke-width="20"/>
<path id="Outline 2" d="M202 594L229.12 574L253.632 594L279.708 574L311 594" stroke="black" stroke-width="20"/>
<path id="Outline 1" d="M193 137.5V589.5L258.5 725L321.5 589.5V137.5C317.984 115.919 312.059 106.364 288 98H222.5C202.553 108.498 196.033 117.114 193 137.5Z" stroke="black" stroke-width="20"/>
</g>
</svg>
