<svg xmlns="http://www.w3.org/2000/svg" viewBox="0 0 85.04 85.04" fill='white' class="header__logo__sign">
            <rect x="27.87" y="25" width="6.66" height="14.65"></rect>
            <path d="M43.94,39.37c-4.25,5.59-13.61,17.92-16.07,21.19.17.03.27.06.38.06,2.32,0,4.63,0,6.95,0,.33,0,.55-.12.75-.39,2.5-3.37,5.42-7.31,7.98-10.7,2.57,3.42,5.46,7.29,7.99,10.7.2.28.42.4.75.39,2.32,0,4.63,0,6.95,0,.1,0,.21-.03.38-.06-2.46-3.27-11.81-15.6-16.05-21.19Z"></path>
            <path d="M34.49,54.06v-10.99c-.91,0-3.46,0-6.62,0,0,5.14,0,10.29,0,15.43,0,.55,0,1.1-.03,1.64-.03.35.04.48.43.48,1.93-.01,3.85,0,5.78.02.38,0,.49-.09.49-.48-.01-2.04-.02-4.07-.02-6.11h-.01Z"></path>
            <path d="M46.29,30.71c2.28.02,4.19.86,5.59,2.72.92,1.22,1.13,2.61,1.05,4.09-.1,1.85-1.02,3.2-2.43,4.28,1.17,1.54,2.51,3.31,3.9,5.14.32-.22.64-.45.93-.71,2.82-2.45,4.34-5.55,4.33-9.29,0-3.67-1.48-6.74-4.18-9.21-2.54-2.33-5.58-3.34-9-3.33-5.52.02-11.03,0-16.55,0-.68,0-1.35,0-2.07,0v.5c0,1.93,0,3.86,0,5.79,7.27,0,16.08,0,18.43.01Z"></path>
            <path d="M66.04,68.23c-6.21,5.68-14.47,9.16-23.52,9.16-19.22,0-34.87-15.64-34.87-34.87S23.29,7.65,42.52,7.65s34.87,15.64,34.87,34.87c0,8.9-3.36,17.04-8.87,23.21l4.69,6.18c7.32-7.64,11.84-18,11.84-29.39C85.04,19.07,65.96,0,42.52,0S0,19.07,0,42.52s19.07,42.52,42.52,42.52c10.79,0,20.65-4.05,28.16-10.7l-4.64-6.11Z"></path>
          </svg>
