<svg width="522" height="290" viewBox="0 0 522 290" fill="none" xmlns="http://www.w3.org/2000/svg">
<g clip-path="url(#clip0_8_163)">
<path d="M372 270C372 270 416.54 261.407 420.038 210.299C423.536 159.191 413.6 61.4979 424 52" stroke="#DFB369" stroke-opacity="0.5" stroke-width="2"/>
<path d="M351 270C351 270 395.54 260.5 399.038 204C402.536 147.5 392.6 39.5 403 29" stroke="#DFB369" stroke-opacity="0.5" stroke-width="2"/>
<path d="M330 270C330 270 374.54 260.106 378.038 201.261C381.536 142.417 371.6 29.9357 382 19" stroke="#DFB369" stroke-opacity="0.5" stroke-width="2"/>
<path d="M308 270C308 270 352.54 259.712 356.038 198.523C359.536 137.334 349.6 20.3714 360 9" stroke="#DFB369" stroke-opacity="0.5" stroke-width="2"/>
<path d="M282 270C282 270 326.54 260.5 330.038 204C333.536 147.5 323.6 39.5 334 29" stroke="#DFB369" stroke-opacity="0.5" stroke-width="2"/>
<path d="M258 270C258 270 302.54 259.712 306.038 198.523C309.536 137.334 299.6 20.3714 310 9" stroke="#DFB369" stroke-opacity="0.5" stroke-width="2"/>
<path d="M229 272C229 272 273.54 262.027 277.038 202.714C280.536 143.4 270.6 30.0228 281 19" stroke="#DFB369" stroke-opacity="0.5" stroke-width="2"/>
<path d="M416.5 269.5C416.5 269.5 461.469 260 465 203.5C468.531 147 458.5 39 469 28.5" stroke="#DFB369" stroke-opacity="0.5" stroke-width="2"/>
<path d="M394 270C394 270 438.54 261.407 442.038 210.299C445.536 159.191 435.6 61.4979 446 52" stroke="#DFB369" stroke-opacity="0.5" stroke-width="2"/>
<path d="M446 270C446 270 481.975 262.313 484.8 216.598C487.625 170.882 479.6 83.4959 488 75" stroke="#DFB369" stroke-opacity="0.5" stroke-width="2"/>
<path d="M155 269C155 269 110.46 260.407 106.962 209.299C103.464 158.191 113.4 60.4979 103 51" stroke="#DFB369" stroke-opacity="0.5" stroke-width="2"/>
<path d="M176 269C176 269 131.46 259.5 127.962 203C124.464 146.5 134.4 38.5 124 28" stroke="#DFB369" stroke-opacity="0.5" stroke-width="2"/>
<path d="M197 269C197 269 152.46 259.106 148.962 200.261C145.464 141.417 155.4 28.9357 145 18" stroke="#DFB369" stroke-opacity="0.5" stroke-width="2"/>
<path d="M219 269C219 269 174.46 258.712 170.962 197.523C167.464 136.334 177.4 19.3714 167 8" stroke="#DFB369" stroke-opacity="0.5" stroke-width="2"/>
<path d="M245 269C245 269 200.46 259.5 196.962 203C193.464 146.5 203.4 38.5 193 28" stroke="#DFB369" stroke-opacity="0.5" stroke-width="2"/>
<path d="M269 269C269 269 224.46 258.712 220.962 197.523C217.464 136.334 227.4 19.3714 217 8" stroke="#DFB369" stroke-opacity="0.5" stroke-width="2"/>
<path d="M298 271C298 271 253.46 261.027 249.962 201.714C246.464 142.4 256.4 29.0228 246 18" stroke="#DFB369" stroke-opacity="0.5" stroke-width="2"/>
<path d="M110.5 268.5C110.5 268.5 65.5312 259 62 202.5C58.4688 146 68.5 38 58 27.5" stroke="#DFB369" stroke-opacity="0.5" stroke-width="2"/>
<path d="M133 269C133 269 88.4595 260.407 84.9619 209.299C81.4643 158.191 91.4 60.4979 81 51" stroke="#DFB369" stroke-opacity="0.5" stroke-width="2"/>
<path d="M81 269C81 269 45.025 261.313 42.2 215.598C39.375 169.882 47.4 82.4959 39 74" stroke="#DFB369" stroke-opacity="0.5" stroke-width="2"/>
<path d="M491 267H10C10 267 251.749 290.893 261.738 289.974C271.728 289.055 491 267 491 267Z" fill="url(#paint0_linear_8_163)" stroke="#AC9163"/>
<path d="M256 113.444L276.5 102.944V111.444L279 112.444V127.444L281 159.944L283 187.444L293.5 227.444L303 258.444L295 269.444C295 269.444 288.5 269.944 286 271.444C283.5 272.944 286 275.444 286 275.444H303L314 266.444H316L317 273.944H321C321 273.944 325 260.944 324.5 258.444C324 255.944 321 254.444 321 254.444L299 187.444C299 187.444 298.5 188.444 303 190.444C307.5 192.444 317 190.444 317 190.444L353 258.444L362 254.444C362 254.444 363 259.944 364 262.444C365 264.944 368 268.444 370 270.444C372 272.444 376 275.444 378.5 275.444C381 275.444 381.5 273.944 381.5 273.944C381.5 273.944 381.5 270.444 380.5 267.444C379.5 264.444 370 250.444 370 250.444V248.444L330 175.944L336 177.944C336 177.944 334 165.444 332 160.944C330 156.444 311 113.944 311 113.944L310.5 110.944C310.5 110.944 318.5 91.4444 323 91.4444C327.5 91.4444 374.5 137.444 374.5 137.444L377 133.944L380 139.944L383 143.944C383 143.944 386.5 147.444 388 147.944C389.5 148.444 387.5 144.944 387.5 144.944C387.5 144.944 385 142.444 384.5 140.944C384 139.444 386 139.444 386 139.444C386 139.444 390 139.444 390.5 140.444C391 141.444 393.5 147.944 393.5 147.944C393.5 147.944 394.5 149.444 395.5 149.444C396.5 149.444 395.5 145.444 395.5 145.444C395.5 145.444 393 137.444 392 136.444C391 135.444 380 130.944 380 130.944L381 128.944L340 85.4444C340 85.4444 340 84.9444 340 83.4444C340 81.9444 335 78.4444 334.5 77.4444C334 76.4444 335.5 73.9444 335 72.4444C334.5 70.9444 330 67.4444 328.5 66.9444C327 66.4444 322.5 65.4444 320.5 64.4444C318.5 63.4444 314.5 56.9444 314.5 56.9444L312 53.9444V48.9444C312 48.9444 318.5 40.9444 319 39.4444C319.5 37.9444 320 34.9444 319 32.9444C318 30.9444 314 26.4444 313 25.9444C312 25.4444 307.5 25.4444 305.5 24.4444C303.5 23.4444 297.5 24.4444 297.5 24.4444C297.5 24.4444 291.5 26.4444 291 27.4444C290.5 28.4444 291 28.9444 291 28.9444L293 30.4444C293 30.4444 293.5 30.4444 294 30.9444C294.5 31.4444 294 32.9444 294 32.9444C294 32.9444 293.5 33.4444 293 33.9444C292.5 34.4444 293 40.4444 293 40.4444L291 43.4444C291 43.4444 290.5 43.9444 291 44.4444C291.5 44.9444 292 45.4444 292 45.4444C292 45.4444 292 53.4444 292 53.9444C292 54.4444 292.5 54.9444 293 54.9444C293.5 54.9444 298.5 54.4444 298 54.9444C297.5 55.4444 298.5 60.4444 298 60.4444C297.5 60.4444 295.5 59.9444 294 60.4444C292.5 60.9444 282.5 65.4444 281 66.9444C279.5 68.4444 278 77.9444 277.5 78.9444C277 79.9444 273.5 84.9444 273.5 84.9444L257.5 100.444L256 113.444Z" fill="black" stroke="#AC9163" stroke-width="0.5"/>
<path d="M312 53.9445C312 53.9445 306 57.4445 303 57.9445C300 58.4445 296 57.4445 296 59.4445C296 59.4445 295 63.4445 292.5 64.9445C290 66.4445 286.5 70.9445 286.5 73.9445C286.5 76.9445 284 84.4445 284 87.4445C284 90.4445 285.5 105.944 284.5 107.944C283.5 109.944 280.5 109.944 279.5 111.444C278.5 112.944 279 114.444 279 114.444L283.5 119.944C283.5 119.944 288 114.944 289.5 113.444C291 111.944 294.5 119.944 296.5 120.444C298.5 120.944 311.5 115.444 311.5 114.944C311.5 114.444 311 111.944 310 111.444C309 110.944 299 116.944 297.5 115.444C296 113.944 296 112.444 296 112.444V92.4445L300 83.4445C300 83.4445 307 71.4445 307.5 68.9445C308 66.4445 307.5 65.4445 308.5 63.9445C309.5 62.4445 315 57.4445 315 57.4445L312 53.9445Z" fill="#FBF6E7" stroke="#AC9163" stroke-width="0.5"/>
<path d="M98.0894 105.328C92.0894 109.828 90.5894 131.828 91.0894 142.828C91.5894 153.828 95.0894 169.328 98.0894 178.328C101.089 187.328 119.089 214.828 124.089 221.328C129.089 227.828 152.089 246.828 161.089 252.328C170.089 257.828 184.089 262.328 194.589 265.828C205.089 269.328 215.089 269.328 226.089 274.328C237.089 279.328 252.589 277.828 252.589 277.828C252.589 277.828 270.089 280.328 277.589 274.328C285.089 268.328 299.589 271.328 298.589 265.828C297.589 260.328 304.589 265.328 305.589 258.828C306.589 252.328 258.589 119.828 258.589 119.828V89.8284C258.589 89.8284 266.589 83.3284 262.089 78.3284C257.589 73.3284 253.557 72.8431 248.089 69.3284L260.589 43.3284L268.089 29.3284C268.089 29.3284 272.089 14.3284 272.089 13.8284C272.089 13.3284 277.589 13.3284 278.589 13.8285C279.589 14.3285 281.089 14.8285 281.089 14.8285L283.089 16.3285C283.089 16.3285 285.089 18.3284 285.589 17.3284C286.089 16.3285 285.589 16.3284 285.589 16.3284C285.589 16.3284 281.589 13.3283 281.089 12.3284C280.589 11.3284 284.089 11.8284 285.089 12.3284L289.089 14.3284C289.089 14.3284 290.089 14.8284 290.589 14.3284C291.089 13.8285 290.589 13.3284 290.589 13.3284C290.589 13.3284 285.089 9.82844 282.589 8.82844C280.089 7.82844 276.089 7.82842 274.589 8.32842C273.089 8.82842 271.089 10.8284 270.089 11.3284C269.089 11.8284 262.089 19.3284 258.589 27.3284C255.089 35.3284 255.589 36.8284 255.589 36.8284L249.589 48.8284C249.589 48.8284 239.589 61.8285 239.089 62.3284C238.589 62.8284 237.089 62.8285 236.589 62.3284C236.089 61.8284 232.089 56.8285 232.589 56.3284C233.089 55.8284 237.589 51.8285 238.089 51.3284C238.589 50.8284 238.589 49.3285 238.089 48.8284C237.589 48.3284 233.589 45.3284 233.589 45.3284C233.589 45.3284 234.089 43.3285 233.589 43.3284H231.089L225.589 40.3284C225.589 40.3284 226.089 38.8285 224.589 37.8284C223.089 36.8284 215.589 36.3285 214.089 36.8284C212.589 37.3284 208.089 39.8285 207.589 41.3284C207.089 42.8284 208.089 47.8285 207.589 48.8284C207.089 49.8284 205.589 51.3284 203.089 52.3284C200.589 53.3285 203.089 58.3284 203.089 58.3284C203.089 58.3284 205.089 61.8284 205.089 63.3284C205.089 64.8285 208.089 66.3284 210.589 66.3284C213.089 66.3284 217.589 64.8284 217.589 66.3284C217.589 67.8284 218.089 69.8285 219.589 68.3284C221.089 66.8284 221.589 66.3284 222.089 64.8284C222.589 63.3285 219.589 62.3284 219.589 61.3284C219.589 60.3285 226.089 62.3284 226.589 63.3284C227.089 64.3285 228.589 67.8285 228.089 69.3284C227.589 70.8284 227.089 74.8285 225.589 76.3284C224.089 77.8284 220.589 80.8285 218.589 81.3284C216.589 81.8284 207.589 84.3284 207.589 84.3284L187.089 87.3284L173.089 91.3284L162.589 94.8284L158.589 98.8284L151.589 106.828C151.589 106.828 151.296 107.122 151.609 107.485C152.179 107.548 152.75 107.612 153.321 107.677C154.771 107.107 156.855 105.563 157.589 104.828C158.589 103.828 161.089 101.328 162.089 102.828C163.089 104.328 163.089 106.828 163.089 106.828L162.589 107.828C162.589 107.828 162.422 108.331 162.475 108.754C162.953 108.813 163.43 108.872 163.906 108.931C164.089 108.652 164.089 108.328 164.089 108.328L164.589 106.828L165.089 102.328L165.589 98.8284L166.089 97.8284L168.589 97.3284C168.589 97.3284 176.589 97.8285 180.589 96.8285L188.589 94.8284H193.589L197.089 93.3284C197.089 93.3284 206.089 94.3284 212.089 93.3284C218.089 92.3285 221.089 89.3284 225.589 89.8284C230.089 90.3285 240.089 104.328 240.589 105.828C241.089 107.328 241.589 109.828 240.589 110.828C239.589 111.828 224.089 119.828 205.089 115.328C197.888 113.623 181.638 111.127 163.906 108.931C163.766 109.142 163.521 109.328 163.089 109.328C162.668 109.328 162.513 109.062 162.475 108.754C159.448 108.384 156.384 108.023 153.321 107.677C152.796 107.882 152.355 107.961 152.089 107.828C151.856 107.712 151.704 107.595 151.609 107.485C126.207 104.66 101.296 102.924 98.0894 105.328Z" fill="#010101"/>
<path d="M285.089 12.3284C284.089 11.8284 280.589 11.3284 281.089 12.3284C281.589 13.3283 285.589 16.3284 285.589 16.3284C285.589 16.3284 286.089 16.3285 285.589 17.3284C285.089 18.3284 283.089 16.3285 283.089 16.3285L281.089 14.8285C281.089 14.8285 279.589 14.3285 278.589 13.8285C277.589 13.3284 272.089 13.3284 272.089 13.8284C272.089 14.3284 268.089 29.3284 268.089 29.3284L260.589 43.3284L248.089 69.3284C253.557 72.8431 257.589 73.3284 262.089 78.3284C266.589 83.3284 258.589 89.8284 258.589 89.8284V119.828C258.589 119.828 306.589 252.328 305.589 258.828C304.589 265.328 297.589 260.328 298.589 265.828C299.589 271.328 285.089 268.328 277.589 274.328C270.089 280.328 252.589 277.828 252.589 277.828C252.589 277.828 237.089 279.328 226.089 274.328C215.089 269.328 205.089 269.328 194.589 265.828C184.089 262.328 170.089 257.828 161.089 252.328C152.089 246.828 129.089 227.828 124.089 221.328C119.089 214.828 101.089 187.328 98.0894 178.328C95.0894 169.328 91.5894 153.828 91.0894 142.828C90.5894 131.828 92.0894 109.828 98.0894 105.328C101.296 102.924 126.207 104.66 151.609 107.485M285.089 12.3284C286.089 12.8284 289.089 14.3284 289.089 14.3284M285.089 12.3284L289.089 14.3284M289.089 14.3284C289.089 14.3284 290.089 14.8284 290.589 14.3284C291.089 13.8285 290.589 13.3284 290.589 13.3284C290.589 13.3284 285.089 9.82844 282.589 8.82844C280.089 7.82844 276.089 7.82842 274.589 8.32842C273.089 8.82842 271.089 10.8284 270.089 11.3284C269.089 11.8284 262.089 19.3284 258.589 27.3284C255.089 35.3284 255.589 36.8284 255.589 36.8284L249.589 48.8284C249.589 48.8284 239.589 61.8285 239.089 62.3284C238.589 62.8284 237.089 62.8285 236.589 62.3284C236.089 61.8284 232.089 56.8285 232.589 56.3284C233.089 55.8284 237.589 51.8285 238.089 51.3284C238.589 50.8284 238.589 49.3285 238.089 48.8284C237.589 48.3284 233.589 45.3284 233.589 45.3284C233.589 45.3284 234.089 43.3285 233.589 43.3284M233.589 43.3284C233.089 43.3284 231.089 43.3284 231.089 43.3284M233.589 43.3284H231.089M231.089 43.3284L225.589 40.3284C225.589 40.3284 226.089 38.8285 224.589 37.8284C223.089 36.8284 215.589 36.3285 214.089 36.8284C212.589 37.3284 208.089 39.8285 207.589 41.3284C207.089 42.8284 208.089 47.8285 207.589 48.8284C207.089 49.8284 205.589 51.3284 203.089 52.3284C200.589 53.3285 203.089 58.3284 203.089 58.3284C203.089 58.3284 205.089 61.8284 205.089 63.3284C205.089 64.8285 208.089 66.3284 210.589 66.3284C213.089 66.3284 217.589 64.8284 217.589 66.3284C217.589 67.8284 218.089 69.8285 219.589 68.3284C221.089 66.8284 221.589 66.3284 222.089 64.8284C222.589 63.3285 219.589 62.3284 219.589 61.3284C219.589 60.3285 226.089 62.3284 226.589 63.3284C227.089 64.3285 228.589 67.8285 228.089 69.3284C227.589 70.8284 227.089 74.8285 225.589 76.3284C224.089 77.8284 220.589 80.8285 218.589 81.3284C216.589 81.8284 207.589 84.3284 207.589 84.3284L187.089 87.3284L173.089 91.3284L162.589 94.8284L158.589 98.8284L151.589 106.828C151.589 106.828 151.296 107.122 151.609 107.485M180.589 96.8285C176.589 97.8285 168.589 97.3284 168.589 97.3284L166.089 97.8284L165.589 98.8284L165.089 102.328L164.589 106.828L164.089 108.328C164.089 108.328 164.089 108.652 163.906 108.931M180.589 96.8285C184.589 95.8285 188.589 94.8284 188.589 94.8284M180.589 96.8285L188.589 94.8284M188.589 94.8284H193.589L197.089 93.3284C197.089 93.3284 206.089 94.3284 212.089 93.3284C218.089 92.3285 221.089 89.3284 225.589 89.8284C230.089 90.3285 240.089 104.328 240.589 105.828C241.089 107.328 241.589 109.828 240.589 110.828C239.589 111.828 224.089 119.828 205.089 115.328C197.888 113.623 181.638 111.127 163.906 108.931M151.609 107.485C152.179 107.548 152.75 107.612 153.321 107.677M151.609 107.485C151.704 107.595 151.856 107.712 152.089 107.828C152.355 107.961 152.796 107.882 153.321 107.677M153.321 107.677C154.771 107.107 156.855 105.563 157.589 104.828C158.589 103.828 161.089 101.328 162.089 102.828C163.089 104.328 163.089 106.828 163.089 106.828L162.589 107.828C162.589 107.828 162.422 108.331 162.475 108.754M153.321 107.677C156.384 108.023 159.448 108.384 162.475 108.754M162.475 108.754C162.953 108.813 163.43 108.872 163.906 108.931M162.475 108.754C162.513 109.062 162.668 109.328 163.089 109.328C163.521 109.328 163.766 109.142 163.906 108.931" stroke="#AC9163" stroke-width="0.5"/>
<path d="M209.192 123.915L106.589 119.328L209.192 126.328L235.589 119.328L209.192 123.915Z" fill="url(#paint1_linear_8_163)" stroke="#AC9163"/>
<path d="M213.768 133.497L112.589 151.133L214.289 135.854L238.557 123.328L213.768 133.497Z" fill="url(#paint2_linear_8_163)" stroke="#AC9163"/>
<path d="M216.148 141.226L111.702 178.262L217.048 143.466L240.87 126.348L216.148 141.226Z" fill="url(#paint3_linear_8_163)" stroke="#AC9163"/>
<path d="M221.717 148.493L123.362 203.923L222.987 150.546L243.99 129.328L221.717 148.493Z" fill="url(#paint4_linear_8_163)" stroke="#AC9163"/>
<path d="M228.932 156.018L145.589 232.177L230.631 157.732L246.315 132.328L228.932 156.018Z" fill="url(#paint5_linear_8_163)" stroke="#AC9163"/>
<path d="M240.943 160.335L187.589 250.893L243.074 161.468L249.579 134.328L240.943 160.335Z" fill="url(#paint6_linear_8_163)" stroke="#AC9163"/>
<path d="M250.57 161.543L216.589 261.005L252.886 162.222L253.78 134.328L250.57 161.543Z" fill="url(#paint7_linear_8_163)" stroke="#AC9163"/>
<path d="M261.634 161.481L253.589 266.28L264.046 161.561L257.941 134.328L261.634 161.481Z" fill="url(#paint8_linear_8_163)" stroke="#AC9163"/>
<path d="M275.464 184.813L299.435 252.154L277.682 183.859L260.5 134L275.464 184.813Z" fill="url(#paint9_linear_8_163)" stroke="#AC9163"/>
</g>
<defs>
<linearGradient id="paint0_linear_8_163" x1="250.5" y1="267" x2="250.5" y2="289.974" gradientUnits="userSpaceOnUse">
<stop/>
<stop offset="1" stop-color="#AC9163"/>
</linearGradient>
<linearGradient id="paint1_linear_8_163" x1="171.089" y1="119.328" x2="171.089" y2="126.328" gradientUnits="userSpaceOnUse">
<stop offset="0.666667" stop-color="#DFB369"/>
<stop offset="1" stop-color="#FBF6E7"/>
</linearGradient>
<linearGradient id="paint2_linear_8_163" x1="175.573" y1="137.231" x2="177.082" y2="144.066" gradientUnits="userSpaceOnUse">
<stop offset="0.666667" stop-color="#DFB369"/>
<stop offset="1" stop-color="#FBF6E7"/>
</linearGradient>
<linearGradient id="paint3_linear_8_163" x1="176.286" y1="152.305" x2="178.896" y2="158.8" gradientUnits="userSpaceOnUse">
<stop offset="0.666667" stop-color="#DFB369"/>
<stop offset="1" stop-color="#FBF6E7"/>
</linearGradient>
<linearGradient id="paint4_linear_8_163" x1="183.676" y1="166.625" x2="187.358" y2="172.579" gradientUnits="userSpaceOnUse">
<stop offset="0.666667" stop-color="#DFB369"/>
<stop offset="1" stop-color="#FBF6E7"/>
</linearGradient>
<linearGradient id="paint5_linear_8_163" x1="195.952" y1="182.252" x2="200.88" y2="187.224" gradientUnits="userSpaceOnUse">
<stop offset="0.666667" stop-color="#DFB369"/>
<stop offset="1" stop-color="#FBF6E7"/>
</linearGradient>
<linearGradient id="paint6_linear_8_163" x1="218.584" y1="192.611" x2="224.765" y2="195.898" gradientUnits="userSpaceOnUse">
<stop offset="0.666667" stop-color="#DFB369"/>
<stop offset="1" stop-color="#FBF6E7"/>
</linearGradient>
<linearGradient id="paint7_linear_8_163" x1="235.184" y1="197.667" x2="241.901" y2="199.639" gradientUnits="userSpaceOnUse">
<stop offset="0.666667" stop-color="#DFB369"/>
<stop offset="1" stop-color="#FBF6E7"/>
</linearGradient>
<linearGradient id="paint8_linear_8_163" x1="255.765" y1="200.304" x2="262.761" y2="200.535" gradientUnits="userSpaceOnUse">
<stop offset="0.666667" stop-color="#DFB369"/>
<stop offset="1" stop-color="#FBF6E7"/>
</linearGradient>
<linearGradient id="paint9_linear_8_163" x1="281.718" y1="210.96" x2="288.148" y2="208.194" gradientUnits="userSpaceOnUse">
<stop offset="0.666667" stop-color="#DFB369"/>
<stop offset="1" stop-color="#FBF6E7"/>
</linearGradient>
<clipPath id="clip0_8_163">
<rect width="522" height="290" fill="white"/>
</clipPath>
</defs>
</svg>
